<?xml version="1.0" standalone="no"?>
<svg xmlns:xlink="http://www.w3.org/1999/xlink" id="wave" style="transform:rotate(0deg); transition: 0.3s" viewBox="0 0 1440 490" version="1.1" xmlns="http://www.w3.org/2000/svg"><defs><linearGradient id="sw-gradient-0" x1="0" x2="0" y1="1" y2="0"><stop stop-color="rgba(255, 195, 77, 1)" offset="0%"/><stop stop-color="rgba(255, 170, 0, 1)" offset="100%"/></linearGradient></defs><path style="transform:translate(0, 0px); opacity:1" fill="url(#sw-gradient-0)" d="M0,392L120,392C240,392,480,392,720,334.8C960,278,1200,163,1440,106.2C1680,49,1920,49,2160,57.2C2400,65,2640,82,2880,114.3C3120,147,3360,196,3600,220.5C3840,245,4080,245,4320,253.2C4560,261,4800,278,5040,294C5280,310,5520,327,5760,310.3C6000,294,6240,245,6480,212.3C6720,180,6960,163,7200,138.8C7440,114,7680,82,7920,57.2C8160,33,8400,16,8640,40.8C8880,65,9120,131,9360,130.7C9600,131,9840,65,10080,40.8C10320,16,10560,33,10800,98C11040,163,11280,278,11520,310.3C11760,343,12000,294,12240,285.8C12480,278,12720,310,12960,302.2C13200,294,13440,245,13680,196C13920,147,14160,98,14400,73.5C14640,49,14880,49,15120,98C15360,147,15600,245,15840,269.5C16080,294,16320,245,16560,228.7C16800,212,17040,229,17160,236.8L17280,245L17280,490L17160,490C17040,490,16800,490,16560,490C16320,490,16080,490,15840,490C15600,490,15360,490,15120,490C14880,490,14640,490,14400,490C14160,490,13920,490,13680,490C13440,490,13200,490,12960,490C12720,490,12480,490,12240,490C12000,490,11760,490,11520,490C11280,490,11040,490,10800,490C10560,490,10320,490,10080,490C9840,490,9600,490,9360,490C9120,490,8880,490,8640,490C8400,490,8160,490,7920,490C7680,490,7440,490,7200,490C6960,490,6720,490,6480,490C6240,490,6000,490,5760,490C5520,490,5280,490,5040,490C4800,490,4560,490,4320,490C4080,490,3840,490,3600,490C3360,490,3120,490,2880,490C2640,490,2400,490,2160,490C1920,490,1680,490,1440,490C1200,490,960,490,720,490C480,490,240,490,120,490L0,490Z"/></svg>